<?xml version="1.0" encoding="UTF-8"?>
<svg id="Layer_1" data-name="Layer 1" xmlns="http://www.w3.org/2000/svg" width="223" height="85.13" viewBox="0 0 223 85.13">
  <defs>
    <style>
      .cls-1 {
        fill: none;
      }

      .cls-2, .cls-3 {
        fill-rule: evenodd;
      }

      .cls-2, .cls-4 {
        fill: #fff;
      }

      .cls-3 {
        fill: #c12033;
      }

      .cls-5 {
        fill: #222d65;
      }
    </style>
  </defs>
  <g>
    <path class="cls-2" d="M17.56,74v-.17c0-.67-.22-1.15-.66-1.46-.44-.31-1.14-.46-2.09-.46h-4.18c-1.79,0-2.94.22-3.45.65-.51.43-.76,1.34-.76,2.71v2.38c0,1.23.28,2.08.85,2.54.57.46,1.69.69,3.36.69h3.03c1.66,0,2.75-.17,3.26-.5.52-.33.77-.95.77-1.85v-.18h5.29s0,.07.01.13c.02.5.03.87.03,1.11,0,1.09-.14,2-.41,2.71-.28.71-.71,1.28-1.3,1.71-.56.41-1.3.71-2.23.88-.93.18-2.29.26-4.09.26h-5.83c-1.78,0-3.09-.1-3.94-.29-.84-.19-1.56-.52-2.16-.98-.69-.54-1.19-1.21-1.5-2-.31-.79-.47-1.79-.47-3v-4.66c0-2.45.58-4.16,1.74-5.12s3.27-1.45,6.32-1.45h5.83c1.87,0,3.25.08,4.14.25s1.59.45,2.1.85c.54.41.94.97,1.2,1.67.26.7.38,1.58.38,2.63,0,.25,0,.45,0,.58s-.01.26-.03.38h-5.23,0Z"/>
    <path class="cls-2" d="M38.97,85.13c-2,0-3.46-.09-4.38-.27-.93-.18-1.68-.49-2.26-.92-.66-.49-1.13-1.13-1.42-1.92-.29-.79-.44-1.84-.44-3.15v-4.66c0-1.43.15-2.56.44-3.4.29-.83.76-1.5,1.42-1.99.57-.43,1.34-.73,2.29-.92s2.4-.28,4.33-.28h6.14c1.94,0,3.39.09,4.35.28.96.18,1.72.49,2.29.92.63.48,1.1,1.14,1.39,1.97.29.83.44,1.9.44,3.2v4.76c0,1.32-.15,2.38-.44,3.21-.29.82-.76,1.48-1.39,1.97-.57.44-1.33.74-2.27.92s-2.4.27-4.37.27h-6.12ZM40.38,80.86h3.32c1.84,0,3.07-.23,3.67-.69s.91-1.32.91-2.58v-2.42c0-1.25-.3-2.11-.91-2.58-.6-.46-1.83-.69-3.67-.69h-3.34c-1.88,0-3.12.23-3.7.7-.59.47-.88,1.35-.88,2.66v2.38c0,1.23.31,2.08.92,2.54s1.84.69,3.68.69h0Z"/>
    <polygon class="cls-2" points="84.76 84.92 77.12 84.92 66.87 72.5 66.87 84.92 61.66 84.92 61.66 67.84 69.39 67.84 79.56 80.37 79.56 67.84 84.76 67.84 84.76 84.92 84.76 84.92"/>
    <path class="cls-2" d="M109.42,74v-.17c0-.67-.22-1.15-.66-1.46-.44-.31-1.14-.46-2.09-.46h-4.18c-1.79,0-2.94.22-3.45.65s-.76,1.34-.76,2.71v2.38c0,1.23.28,2.08.85,2.54s1.69.69,3.36.69h3.03c1.66,0,2.75-.17,3.26-.5.52-.33.77-.95.77-1.85v-.18h5.29s0,.07.01.13c.02.5.03.87.03,1.11,0,1.09-.14,2-.41,2.71-.28.71-.71,1.28-1.3,1.71-.56.41-1.3.71-2.23.88-.93.18-2.29.26-4.09.26h-5.83c-1.78,0-3.09-.1-3.94-.29-.84-.19-1.56-.52-2.16-.98-.69-.54-1.19-1.21-1.5-2-.31-.79-.47-1.79-.47-3v-4.66c0-2.45.58-4.16,1.74-5.12s3.27-1.45,6.32-1.45h5.83c1.87,0,3.25.08,4.14.25.89.17,1.59.45,2.1.85.54.41.94.97,1.2,1.67.26.7.38,1.58.38,2.63,0,.25,0,.45,0,.58,0,.13-.01.26-.03.38h-5.23,0Z"/>
    <path class="cls-2" d="M136.32,72.09h-8.3v4.18h8.3c.7,0,1.18-.16,1.46-.49.28-.33.42-.91.42-1.76,0-.67-.15-1.16-.45-1.47s-.78-.46-1.43-.46h0ZM136.52,67.84c2.71,0,4.55.4,5.53,1.2.98.8,1.47,2.27,1.47,4.39,0,1.48-.22,2.57-.65,3.29-.44.72-1.17,1.2-2.19,1.45.9.21,1.58.59,2.03,1.14s.68,1.25.68,2.11v3.5h-5.22v-2.6c0-.67-.16-1.14-.48-1.39s-.94-.38-1.88-.38h-7.78v4.37h-5.23v-17.09h13.72,0Z"/>
    <polygon class="cls-2" points="170.42 72 156.96 72 156.96 74.58 169.64 74.58 169.64 78.18 156.96 78.18 156.96 80.79 170.63 80.79 170.63 84.92 151.75 84.92 151.75 67.84 170.42 67.84 170.42 72 170.42 72"/>
    <polygon class="cls-2" points="189.75 84.92 184.54 84.92 184.54 72.03 177.39 72.03 177.39 67.84 196.9 67.84 196.9 72.03 189.75 72.03 189.75 84.92 189.75 84.92"/>
    <polygon class="cls-2" points="222.79 72 209.33 72 209.33 74.58 222.01 74.58 222.01 78.18 209.33 78.18 209.33 80.79 223 80.79 223 84.92 204.12 84.92 204.12 67.84 222.79 67.84 222.79 72 222.79 72"/>
  </g>
  <path class="cls-2" d="M160.74,45.41c-.06-1.03-.08-2.06-.08-3.09v-21.73l6.39,17.43,8.18,21.78h7.09l15.79-39.33v28.93c0,.27,0,.53-.02.8,0,.14-.02.27-.02.41,0,.13-.02.26-.04.39-.02.12-.06.24-.1.36-.04.12-.1.24-.17.35-.1.16-.25.32-.41.43-.24.18-.5.31-.77.42-.13.05-.25.1-.39.13-.54.14-1.21.25-1.79.34-.49.07-.98.14-1.47.2-.35.04-.7.09-1.05.12-.76.07-1.52.15-2.28.21v7.14h33.39v-7.08l-1.6-.2c-.43-.05-.85-.12-1.27-.18-.46-.08-.91-.15-1.37-.23-.54-.09-1.58-.3-2.09-.53-.13-.06-.25-.12-.37-.19-.21-.12-.61-.38-.74-.63-.03-.07-.08-.24-.1-.33-.12-.54-.18-1.3-.19-1.89V11.99c0-.58.09-1.15.33-1.68.02-.04.04-.08.07-.12.04-.05.09-.1.15-.15.08-.06.17-.12.26-.17.13-.07.26-.12.4-.17.76-.24,1.54-.43,2.33-.56h0c.79-.14,1.59-.24,2.39-.29l1.71-.11V1.53h-28.28l-.11,1.71c0,.08-.01.16-.03.24-.04.31-.08.62-.12.94-.09.74-.15,1.17-.25,1.86-.04.25-.08.49-.13.74-.14.59-.29,1.18-.46,1.77-.18.65-.38,1.28-.6,1.92l-9.6,23.43L171.46,1.53h-28.38v7.2l1.7.12c1.02.07,2.03.22,3.02.43.14.03.28.07.41.11,2.65.83,3.64,3.32,3.79,6.2v27.17c0,1.1-.02,2.2-.08,3.3l-.08,1.38c-.02.39-.05.77-.09,1.16-.03.37-.08.74-.15,1.1-.06.38-.16.74-.29,1.1-.09.26-.21.52-.36.75-.15.24-.33.47-.55.66-.22.2-.46.36-.72.5-.27.14-.56.26-.85.35-.18.01-.35.01-.53,0-.23,0-.45-.04-.68-.08-.4-.08-.78-.25-1.12-.48l-15.97-20.18c.7-.26,1.35-.53,2.04-.84.73-.33,1.44-.7,2.14-1.09,1.54-.88,3-1.98,4.22-3.28,1.29-1.38,2.26-3.01,2.88-4.79.32-.91.55-1.84.69-2.79.15-1.01.23-2.02.23-3.04,0-2.19-.39-4.29-1.36-6.25-.52-1.04-1.18-2.01-1.98-2.86-.85-.9-1.83-1.69-2.89-2.33-.57-.35-1.17-.66-1.77-.95-.65-.3-1.32-.57-2-.8-1.35-.47-2.79-.83-4.21-1.09-.66-.12-1.32-.22-1.99-.31-.72-.09-1.45-.17-2.17-.22-1.49-.11-2.98-.17-4.48-.17h-32.6v7.07l1.53.25c.8.13,1.74.32,2.57.49.43.09.85.19,1.27.31.45.12.89.27,1.32.45.13.06.26.12.39.19.21.11.41.23.58.39.02.02.37.38.38,1.38v36.36c0,.68,0,1.2-.07,1.84-.03.29-.07.58-.13.86-.06.26-.15.52-.28.74-.22.37-.57.61-.96.77-.27.11-.55.2-.83.26-.34.08-.68.13-1.03.18-1.67.2-3.01.34-4.74.52v7.11h32.92v-7.11l-1.63-.18c-.4-.04-.79-.1-1.19-.17-.53-.09-1.06-.2-1.59-.31-.23-.05-.45-.11-.68-.18-.24-.07-.47-.16-.7-.25-.4-.17-.8-.42-1.09-.76-.12-.14-.21-.3-.29-.47-.09-.22-.16-.45-.21-.68-.05-.28-.09-.56-.1-.85-.02-.34-.03-.68-.03-1.02v-12.19c2.6,3.19,5.36,6.59,7.78,9.94,3.06,4.24,6.56,9.58,9.54,14.22h39.86v-7.17l-1.45-.19c-.48-.06-.95-.13-1.43-.21-.51-.09-1.02-.2-1.52-.34-.68-.19-1.37-.47-1.95-.87-.21-.14-.4-.31-.59-.48-.15-.15-.3-.31-.43-.48-.47-.61-.81-1.35-1.05-2.08-.18-.54-.32-1.09-.44-1.64-.12-.6-.22-1.21-.3-1.82h0ZM117.63,9.69c.37.06.73.14,1.09.24.39.1.78.22,1.16.37,1.87.72,2.98,2.62,3.52,4.45.23.78.39,1.58.47,2.39.16,1.62.05,3.28-.37,4.86-.1.38-.23.76-.37,1.13-.46,1.17-1.19,2.34-2.25,3.06-.33.22-.67.42-1.03.58-.4.19-.81.35-1.23.48-.42.13-.85.24-1.29.32-.48.09-.96.16-1.45.21h-.03c-.67.08-1.35.12-2.03.12h-1.11V9.38h1.23c.53,0,1.05.02,1.57.06.71.05,1.42.14,2.12.26h0ZM64.3,62.23c1.08,0,2.16-.04,3.23-.12,1.37-.11,2.68-.29,4.01-.56.95-.19,1.88-.44,2.8-.74,1.31-.43,2.59-.96,3.82-1.59,1.38-.71,2.69-1.55,3.9-2.52,2.15-1.71,3.78-3.78,4.99-6.22.57-1.14,1.01-2.34,1.33-3.57.35-1.38.53-2.79.53-4.22,0-.83-.04-1.65-.13-2.47-.1-.93-.28-1.86-.52-2.77-.25-.93-.57-1.83-.98-2.7-.84-1.79-2.03-3.4-3.46-4.77-.71-.68-1.46-1.3-2.26-1.86-.78-.55-1.6-1.05-2.45-1.49-.91-.48-1.85-.9-2.8-1.28-.86-.33-1.72-.65-2.59-.96-.93-.33-1.86-.65-2.8-.96-1.95-.64-3.89-1.29-5.83-1.95-.54-.18-1.07-.37-1.59-.57-.58-.22-1.15-.47-1.71-.73-.56-.26-1.1-.55-1.63-.87-.27-.16-.53-.34-.79-.53-.28-.2-.54-.41-.79-.64-.19-.18-.37-.36-.54-.57-.96-1.17-1.31-2.42-1.11-3.91.07-.51.2-1.01.4-1.48.16-.39.37-.75.62-1.09.29-.4.61-.75.97-1.07.69-.63,1.51-1.11,2.39-1.42.48-.17.97-.29,1.47-.37.57-.09,1.15-.13,1.72-.13.4,0,.79.02,1.19.05.63.05,1.25.16,1.85.33.66.18,1.29.43,1.88.75.7.38,1.35.82,1.97,1.33.68.56,1.31,1.18,1.87,1.86.27.33.54.65.8.98.56.7,1.1,1.42,1.58,2.19.25.41.48.83.69,1.25.46.94.91,1.9,1.33,2.86.47,1.07.91,2.15,1.33,3.24l.45,1.18h6.45l-.37-22.6h-5.92l-1.94,1.94c-.6-.29-1.33-.61-1.96-.86-1.12-.44-2.25-.85-3.4-1.22C69.29.42,66.27,0,63.17,0c-1.48,0-2.96.1-4.42.32-1.65.24-3.27.64-4.85,1.2-.56.2-1.12.41-1.67.65-1.95.83-3.86,1.93-5.46,3.34h-.01c-.88.8-1.69,1.66-2.42,2.59-.82,1.05-1.52,2.19-2.08,3.4-.48,1.04-.86,2.12-1.13,3.24-.29,1.24-.44,2.51-.44,3.78,0,3.74.98,7.2,2.98,10.28.49.76,1.05,1.48,1.66,2.14.67.73,1.4,1.4,2.18,2,.77.59,1.58,1.13,2.42,1.6.91.51,1.84.96,2.81,1.34h.01c1.72.68,3.46,1.31,5.22,1.89,1.99.66,3.99,1.32,5.98,1.97.55.18,1.1.37,1.64.58.59.23,1.18.47,1.75.74.57.27,1.13.57,1.67.9.28.17.55.35.81.54.9.66,1.65,1.43,2.11,2.43.42.91.54,1.92.47,2.91-.05.65-.23,1.19-.47,1.79-.18.44-.4.86-.67,1.26-.59.86-1.39,1.61-2.31,2.13-.52.29-1.06.52-1.63.69-.6.18-1.21.31-1.82.39-.7.09-1.4.13-2.11.13-.48,0-.95-.02-1.42-.06-1.01-.09-2.04-.31-2.99-.65-.41-.15-.81-.32-1.19-.52-4.39-2.27-7.85-6.81-9.99-11.09-.11-.21-.21-.43-.32-.64-.49-1.02-.95-2.06-1.36-3.11l-.46-1.16h-6.45l.59,23.73h5.84l2.25-2.31c.81.41,1.74.82,2.6,1.16,1.28.5,2.58.95,3.9,1.33,1.54.45,3.1.78,4.69,1,1.72.23,3.46.35,5.19.35h0Z"/>
  <path class="cls-3" d="M159.53,45.52c-.06-1.06-.09-2.14-.09-3.2V13.72l8.76,23.88,7.88,20.98h5.42l17.83-44.43v35.25c0,.38-.03,1.44-.11,1.81-.08.39-.22.78-.42,1.13-.4.66-1.07,1.07-1.76,1.36h-.02c-.16.08-.36.14-.53.19-.56.15-1.31.28-1.91.36-.5.07-.99.14-1.49.2-.84.11-1.36.15-2.26.24v4.8h30.94v-4.78l-.53-.07c-.44-.06-.88-.12-1.32-.19-.46-.08-.92-.15-1.38-.23-.63-.11-1.75-.33-2.39-.62-.16-.07-.31-.15-.47-.24-.47-.27-.98-.65-1.23-1.14-.31-.61-.42-2.06-.42-2.76V11.99c0-.76.13-1.49.43-2.18.06-.14.14-.26.23-.38.21-.27.51-.49.82-.65.18-.09.38-.17.57-.24.82-.26,1.66-.46,2.5-.61h0c.84-.15,1.68-.25,2.52-.31l.57-.04V2.75h-25.91l-.04.57c0,.11-.02.22-.04.33-.1.7-.34,2.85-.53,3.63-.15.61-.3,1.22-.47,1.82-.19.68-.4,1.36-.63,2.02l-10.81,26.38-12.67-34.76h-26.31v4.85l.57.04c1,.07,2,.21,2.98.41,3.37.7,5.32,3.51,5.38,6.92,0,.09,0,.18,0,.28v27.5c0,1.12-.02,2.25-.08,3.37,0,.1-.01.2-.02.31-.2,3.43-.19,6.73-4.06,7.84-1.52.12-2.57-.25-3.39-.87l-16.16-20.42c-.32-.42-.64-.83-.96-1.25.54-.17,1.08-.36,1.62-.56,1.34-.5,2.72-1.12,3.94-1.83.94-.54,1.8-1.13,2.62-1.81.46-.39.9-.8,1.31-1.24.56-.59,1.05-1.24,1.47-1.94.47-.76.85-1.57,1.14-2.42.29-.84.5-1.7.64-2.58.14-.95.22-1.9.21-2.86,0-1.99-.35-3.93-1.23-5.72-.46-.94-1.06-1.8-1.78-2.56-.37-.4-.77-.77-1.19-1.11-.46-.37-.94-.71-1.45-1.02-.53-.32-1.09-.62-1.65-.88-.62-.28-1.24-.54-1.88-.76-.63-.22-1.27-.41-1.91-.57-.7-.18-1.41-.33-2.12-.46-.64-.12-1.28-.22-1.93-.3-.7-.09-1.41-.16-2.11-.22-1.46-.11-2.92-.17-4.38-.16h-31.38v4.81l.51.08c.43.07.86.15,1.28.23.45.09.9.18,1.34.27.45.09.9.2,1.35.33.5.14.98.3,1.46.5.16.07.32.15.48.23.3.16.61.35.86.59.02.02.72.85.75,1.72v36.9c0,3.69-.4,5.38-4.38,5.87-.06,0-.11.01-.16.02-1.16.14-2.33.27-3.5.39v4.79h30.48v-4.79l-.54-.06c-.42-.05-.85-.11-1.27-.18-.45-.08-.91-.17-1.36-.26-.08-.02-.18-.04-.28-.06-3.66-.81-4.04-2.59-4.04-5.4v-14.12h1.22c2.88,3.53,6.07,7.42,8.77,11.16.74,1.03,1.47,2.06,2.19,3.11.77,1.12,1.54,2.25,2.3,3.38,1.6,2.39,3.18,4.8,4.73,7.22h37.97v-4.87s-.27-.04-.38-.05c-5.23-.68-7.85-1.83-8.76-9.04h0ZM116,28.99c-.72.09-1.45.13-2.18.13h-2.33V8.16h2.44c.56,0,1.11.02,1.67.06,1.86.14,3.43.45,4.73.94,6.07,2.33,6.37,14.57,1.24,18.03-1.32.89-3.12,1.56-5.57,1.8h0Z"/>
  <path class="cls-3" d="M64.3,61.01c3.34,0,5.63-.38,6.99-.66.9-.18,1.79-.42,2.67-.71,1.25-.41,2.47-.92,3.64-1.52,1.31-.67,2.55-1.47,3.7-2.39,2.01-1.59,3.53-3.53,4.65-5.81.53-1.06.94-2.18,1.24-3.33.33-1.28.49-2.59.49-3.91,0-.78-.04-1.56-.13-2.34-.1-.87-.26-1.74-.48-2.59-.23-.86-.53-1.69-.91-2.49-.78-1.66-1.87-3.14-3.19-4.4-.66-.63-1.37-1.22-2.12-1.74-.74-.52-1.52-.99-2.32-1.41-.87-.46-1.76-.86-2.68-1.22-.85-.33-1.7-.64-2.55-.94-.92-.33-1.85-.64-2.77-.95-1.95-.64-3.89-1.29-5.83-1.96-.55-.18-1.1-.38-1.64-.58-.61-.23-1.21-.49-1.79-.76-.6-.28-1.18-.59-1.74-.93-.3-.18-.59-.38-.87-.58-.31-.23-.62-.47-.9-.73-.15-.14-.3-.29-.44-.44-1.31-1.45-1.85-3.18-1.59-5.11.08-.61.24-1.21.48-1.78.2-.47.45-.92.75-1.33.34-.47.71-.88,1.14-1.26.82-.74,1.77-1.3,2.81-1.67.55-.19,1.11-.33,1.69-.42.63-.1,1.27-.15,1.91-.14.43,0,.86.02,1.29.06,1.47.13,2.92.51,4.22,1.22.76.42,1.48.9,2.16,1.46.74.61,1.42,1.29,2.03,2.02,1.25,1.52,2.34,2.85,3.23,4.66.47.96.92,1.93,1.35,2.9.48,1.09.93,2.19,1.35,3.3l.15.39h4.37l-.33-20.16h-4.22l-2.21,2.2c-.82-.44-1.77-.86-2.65-1.22-1.06-.42-2.21-.83-3.32-1.19-2.85-.92-5.76-1.32-8.73-1.32-1.42,0-2.84.1-4.24.3-1.57.23-3.12.61-4.62,1.14-.54.19-1.07.4-1.59.62-1.84.79-3.63,1.82-5.14,3.14h0c-.83.74-1.59,1.55-2.27,2.43-.76.98-1.41,2.04-1.94,3.16-.45.96-.8,1.97-1.05,3.01-.27,1.15-.41,2.32-.4,3.5,0,3.49.9,6.71,2.78,9.62.45.7.97,1.37,1.53,1.98.62.68,1.3,1.3,2.03,1.86.72.56,1.48,1.06,2.27,1.5.86.48,1.75.91,2.67,1.28h0c1.7.67,3.42,1.29,5.15,1.86,1.99.66,3.98,1.31,5.98,1.97,1.27.41,2.37.83,3.54,1.37.61.29,1.21.61,1.79.96.31.19.6.39.89.6,1.06.77,1.95,1.7,2.5,2.9.2.42.34.87.44,1.33.11.52.16,1.02.16,1.55,0,1.11-.17,1.78-.58,2.8-.21.53-.48,1.03-.8,1.5-.7,1.02-1.64,1.9-2.72,2.5-.59.33-1.22.6-1.87.79-.66.2-1.34.34-2.02.43-.75.1-1.51.14-2.26.14-.51,0-1.02-.02-1.53-.07-.56-.05-1.12-.14-1.67-.25-1.17-.25-2.28-.66-3.32-1.24-.55-.31-1.09-.65-1.6-1.01-4.34-3.05-6.35-5.94-8.67-10.64-.07-.15-.15-.3-.22-.45-.51-1.05-.97-2.12-1.4-3.2l-.15-.39h-4.37l.53,21.29h4.14l2.52-2.59c2.18,1.19,4.68,2.12,7.08,2.82,1.48.43,2.99.75,4.52.96,1.66.23,3.35.34,5.03.34h0Z"/>
  <path class="cls-1" d="M18.51,31.86v.16s.1-.14.1-.14c-.03,0-.06-.01-.1-.02h0Z"/>
  <g>
    <path class="cls-2" d="M0,.85v1.29s0,27.52,0,27.52v1.27s.01,0,.01,0v10.27s0,0,0,0L0,53.67l1.25-.2s.15-.02.32-.05h0c.93-.15,2.34-.34,3.76-.38,1.61-.04,2.86.12,3.72.47.48.19,1.36.56,1.93,2.76h0c.24,2.08,1.24,3.23,2.03,3.84.98.75,2.26,1.13,3.78,1.13.53,0,1.09-.05,1.68-.14,2.21-.21,5.43-.99,9.57-2.34,3.71-1.21,7.09-2.53,8.37-3.04l.7-.28-.31-12.5h0s-.24-9.8-.24-9.8c1.87-.68,3.43-1.28,4.42-1.67l1.28-.5-.79-1.13c-.11-.16-.23-.33-.34-.5-2.08-3.19-3.13-6.83-3.14-10.81,0-1.35.15-2.69.46-4.01.28-1.18.68-2.33,1.19-3.43.59-1.27,1.33-2.48,2.19-3.58.76-.98,1.62-1.89,2.54-2.71h.02c.79-.7,1.67-1.35,2.64-1.94l3.27-2L0,.85h0Z"/>
    <path class="cls-5" d="M1.08,1.93v27.72c.05,0,.16-.03.29-.05,3.1-.48,5.17-.42,6.53-.17,2.89.53,3.33,1.86,3.92,4.28.13,1.14.51,3.72,4.65,3.67,6.72-.21,20.73-5.56,24.13-6.9-.12-.17-.24-.35-.36-.53-2.21-3.41-3.31-7.25-3.31-11.39,0-1.43.16-2.86.49-4.26.3-1.25.72-2.47,1.26-3.63.63-1.35,1.41-2.62,2.32-3.79.81-1.03,1.7-1.99,2.68-2.86l.02-.02c.86-.76,1.8-1.43,2.78-2.04l-45.42-.03h0Z"/>
    <path class="cls-3" d="M36.03,54.72l-.32-12.6c-3.72,1.5-13.25,5.07-18.81,5.28-1.63.08-4.56-.33-4.85-4.32-.58-3-3.03-3.47-3.61-3.6-1-.22-3.04-.41-6.91.1-.18.03-.44.08-.44.08l-.02,12.75s.15-.02.33-.05c4.61-.75,6.94-.3,8.07.16.63.26,1.9.82,2.58,3.55.06.22.17,4.92,6.3,3.97,4.93-.45,14.15-3.91,17.67-5.31h0Z"/>
    <g>
      <polygon class="cls-4" points="13.67 9.95 13.04 5 10.71 9.43 8.84 9.09 5.69 8.53 7.95 10.92 9.24 12.28 6.8 16.82 11.36 14.56 14.85 18.24 14.14 13.15 18.72 10.82 13.67 9.95"/>
      <polygon class="cls-4" points="31.4 11.09 34.2 6.81 29.42 8.53 26.38 4.57 26.54 9.59 21.78 11.33 26.71 12.79 26.87 17.93 29.68 13.71 34.55 15.15 31.4 11.09"/>
      <path class="cls-4" d="M19.73,27.83l4.88,1.44-3.16-4.05,2.8-4.29-4.78,1.72-3.04-3.96.17,5.02-4.76,1.74,4.92,1.46.16,4.98s.06.01.1.02l2.71-4.08h0Z"/>
    </g>
  </g>
</svg>